<svg xmlns="http://www.w3.org/2000/svg" xmlns:xlink="http://www.w3.org/1999/xlink" version="1.1" x="0px" y="0px" viewBox="0 0 100 125" enable-background="new 0 0 100 100" xml:space="preserve">
    <path d="M86,36.4V20.8c2.3-0.7,4-2.8,4-5.3c0-3-2.5-5.5-5.5-5.5S79,12.5,79,15.5c0,2.5,1.7,4.6,4,5.3V36h-0.4  C78.5,19.9,66.1,9.9,50,9.9c-16.1,0-28.5,9.9-32.6,26.1H16c-3.3,0-6,2.7-6,6v12c0,3.3,2.7,6,6,6h1.9c1.6,4.5,4.1,8.5,7.5,11.8  l-2.7,2.7c-0.7,0.7-0.8,1.8-0.2,2.6c6.1,8.2,16.1,13,27.4,13c11.3,0,21.3-4.699,27.4-13c0.601-0.8,0.5-1.899-0.2-2.6L74.4,71.8  c3.3-3.2,5.899-7.3,7.5-11.8H84c3.3,0,6-2.7,6-6V42C90,39.4,88.3,37.2,86,36.4z M87,50h-4c0-0.7,0.1-1.4,0.1-2.2  c0-3.1-0.3-6-0.8-8.8H84c1.7,0,3,1.3,3,3V50z M84,57h-2.1c0.399-1.6,0.699-3.3,0.899-5H87v2C87,55.7,85.7,57,84,57z M50,87  c-10,0-18.9-4-24.5-11.1l2.8-2.801c5.6,4.4,13,6.9,21.7,6.9s16.1-2.5,21.7-6.9l2.8,2.801C68.9,83,60,87,50,87z M16,39h1.8  c-0.5,2.8-0.8,5.8-0.8,8.8c0,0.7,0,1.4,0.1,2.2h-4v-8C13,40.3,14.3,39,16,39z M50,27c14.9,0,27,10.9,27,24.3c0,14.5-13.6,21-27,21  c-13.4,0-27-6.5-27-21C23,37.9,35.1,27,50,27z M50,25c-3.5,0-6.9,0.6-10,1.6V14.5c3.1-1,6.4-1.5,10-1.5c3.6,0,6.9,0.5,10,1.5v12.2  C56.9,25.6,53.5,25,50,25z M38,15.2v12.2c-10,4.1-17,13.3-17,23.9c0,13.7,11.7,23,29,23s29-9.2,29-23c0-10.6-7-19.8-17-23.9V15.2  c11.7,4.7,19,16.7,19,32.7C81,65.9,68.6,78,50,78c-18.6,0-31-12.1-31-30.2C19,31.9,26.3,19.9,38,15.2z M13,52h4.2  c0.2,1.7,0.5,3.4,0.9,5H16c-1.7,0-3-1.3-3-3V52z M82,15.5c0-1.4,1.1-2.5,2.5-2.5s2.5,1.1,2.5,2.5S85.9,18,84.5,18S82,16.9,82,15.5z   M28.4,44.7l6.2,2c0.558,0,0.896,0.007,1.2-0.6c1.9-4.3,6-7.5,11-8.7c0.625-0.208,0.845-0.865,0.7-1.3l-1.7-5.5  c-0.2-0.5-0.7-0.8-1.2-0.7c-7.6,1.8-13.9,6.8-16.9,13.3C27.496,44.219,28.033,44.7,28.4,44.7z M44.2,32.2l1.1,3.6  c-4.8,1.4-8.8,4.6-10.9,8.7l-4.3-1.4C32.8,38,38,34,44.2,32.2z" />
</svg>